# xmcd CD database file
#
# Track frame offsets:
#	150
#	16927
#	36510
#	54445
#	71835
#	84685
#	96365
#	112962
#	125132
#	136930
#	150017
#	166717
#	188432
#	205012
#	217962
#	236317
#
# Disc length: 3778 seconds
#
# Revision: 9
# Processed by: cddbd v1.5.2PL0 Copyright (c) Steve Scherf et al.
# Submitted via: CDex 1.70beta3
#
DISCID=ca0ec010
DTITLE=Stevie Wonder - Song Review - A Greatest Hits Collection
DYEAR=1996
DGENRE=R&B
TTITLE0=Part-Time Lover
TTITLE1=I Just Called To Say I Love You
TTITLE2=Superstition
TTITLE3=Sir Duke
TTITLE4=My Cherie Amour
TTITLE5=I Was Made To Love Her
TTITLE6=Overjoyed
TTITLE7=Hey Love
TTITLE8=Signed, Sealed, Delivered, I'm Yours
TTITLE9=You Are The Sunshine Of My Life
TTITLE10=Ribbon In The Sky
TTITLE11=Master Blaster (Jammin')
TTITLE12=Living For The City
TTITLE13=Uptight (Everything's Alright)
TTITLE14=Lately
TTITLE15=Do I Do
EXTD=YEAR: 1996
EXTT0=
EXTT1=
EXTT2=
EXTT3=
EXTT4=
EXTT5=
EXTT6=
EXTT7=
EXTT8=
EXTT9=
EXTT10=
EXTT11=
EXTT12=
EXTT13=
EXTT14=
EXTT15=
PLAYORDER=
